# xmcd
#
# Track frame offsets: 
#        150
#        13900
#        31095
#        46875
#        60150
#        73500
#        88687
#        101660
#        114175
#        124900
#
# Disc length: 1890 seconds
#
# Revision: 0
# Processed by: cddbd v1.5PL3 Copyright (c) Steve Scherf et al.
# Submitted via: ExactAudioCopy v0.95a4
#
DISCID=7707600a
DTITLE=Aunt Mary - Blues Prints
DYEAR=1992
DGENRE=Blues
TTITLE0=Tobacco Road
TTITLE1=Drown In My Own Tears
TTITLE2=She Caught The Cathy
TTITLE3=Why I Sing The Blues
TTITLE4=I've Got A Woman
TTITLE5=Same Old Blues
TTITLE6=It's Over
TTITLE7=Corrina
TTITLE8=I Chose To Sing The Blues
TTITLE9=Reconsider Baby
EXTD=
EXTT0=
EXTT1=
EXTT2=
EXTT3=
EXTT4=
EXTT5=
EXTT6=
EXTT7=
EXTT8=
EXTT9=
PLAYORDER=
